<svg version="1.1" id="Layer_1" xmlns="http://www.w3.org/2000/svg" xmlns:xlink="http://www.w3.org/1999/xlink" x="0px" y="0px"
	 width="100%" viewBox="0 0 320 320" enable-background="new 0 0 320 320" xml:space="preserve">
<path fill="#000000" opacity="1.000000" stroke="none" 
	d="
M12.276557,137.577866 
	C24.548637,80.787323 57.201550,42.043755 111.618294,22.230753 
	C136.798416,13.062728 162.963409,11.526182 188.801361,17.225035 
	C245.983627,29.837227 284.779572,64.479500 302.439087,120.305290 
	C317.898834,169.177109 308.440002,214.917999 277.533630,255.579727 
	C257.852875,281.472534 231.881485,299.140503 200.154739,307.488617 
	C141.736176,322.860016 91.550133,307.916260 49.769081,264.990387 
	C31.926359,246.658752 20.675583,224.315155 14.470551,199.330719 
	C9.409904,178.954117 8.825717,158.595978 12.276557,137.577866 
M225.423569,93.874741 
	C227.396637,96.129784 229.371216,98.383507 231.342346,100.640236 
	C233.195160,102.761490 234.833603,105.314323 238.245163,104.710327 
	C245.125916,103.492142 249.956284,106.350571 253.927139,111.827782 
	C256.253906,115.037209 259.485107,117.575119 262.068848,120.619339 
	C263.949097,122.834679 266.691742,124.422630 268.041199,128.804810 
	C252.059814,128.804810 236.620865,128.804810 221.287811,128.804810 
	C221.287811,138.218262 221.375336,146.357986 221.244598,154.494202 
	C221.192505,157.736526 222.487564,158.971375 225.672546,158.908356 
	C231.502518,158.792999 237.343124,159.062012 243.166916,158.842392 
	C246.955704,158.699509 249.799026,159.747787 252.338577,162.707153 
	C256.783356,167.886719 261.618805,172.729843 266.246033,177.754929 
	C267.328888,178.930908 268.869110,179.909286 268.640137,181.921982 
	C267.271484,183.641968 265.310211,183.115677 263.559723,183.156998 
	C251.243301,183.447800 238.926025,183.814728 226.607956,183.858398 
	C222.448898,183.873138 221.008469,185.364975 221.213837,189.464600 
	C221.488647,194.950104 221.480560,200.469086 221.217636,205.955658 
	C221.030716,209.856293 222.747940,210.768509 226.259064,210.705872 
	C235.254868,210.545395 244.255554,210.676758 253.254105,210.642395 
	C255.661438,210.633194 257.755524,210.948151 259.533203,212.943741 
	C264.629150,218.664505 269.940460,224.193222 275.050354,229.901962 
	C276.045746,231.013977 277.920288,231.892761 277.127747,234.226578 
	C276.594391,234.358047 275.982880,234.607254 275.357666,234.648407 
	C260.877808,235.601532 246.375351,235.073395 231.884491,235.318604 
	C229.594894,235.357330 228.216171,234.228119 226.889877,232.595673 
	C219.747208,223.804214 212.491745,215.103851 205.397659,206.273651 
	C201.435654,201.342041 199.039459,195.850143 199.569809,189.240082 
	C199.915192,184.935684 199.628754,180.579971 199.610229,176.247314 
	C199.603775,174.735367 199.667191,173.086288 197.941940,172.410202 
	C193.702927,170.749008 189.422104,169.194565 184.370819,167.302277 
	C185.523300,170.139359 186.348724,172.095322 187.116516,174.073654 
	C192.249817,187.300400 186.929398,201.175690 174.505524,206.269028 
	C166.585510,209.515930 158.610260,208.860657 150.676880,205.771637 
	C141.530579,202.210312 135.818405,194.827271 129.729324,187.751022 
	C119.869675,176.292938 111.108788,163.842255 98.641167,154.768173 
	C84.487320,144.466827 68.907471,139.829559 51.621887,142.729568 
	C46.342716,143.615265 43.207050,142.394623 40.157902,138.378983 
	C36.087124,133.017899 31.575346,127.991669 26.977638,122.492294 
	C10.508955,169.918961 23.365324,235.786957 75.560959,275.115356 
	C129.215012,315.542633 203.187744,311.645264 252.025253,268.177002 
	C302.039093,223.661728 312.871307,152.687332 281.800537,96.511536 
	C248.781815,36.813927 180.971771,12.186698 120.364349,30.019028 
	C88.752754,39.320004 63.356510,57.722988 44.648544,84.944031 
	C37.868668,94.809105 31.891657,105.196732 28.476513,117.458138 
	C32.434288,116.847458 35.270035,115.904922 38.307125,115.825676 
	C54.218521,115.410507 67.776001,121.465157 80.358894,130.565948 
	C93.760689,140.259003 103.858978,153.158844 114.457153,165.537277 
	C120.681534,172.807236 126.467346,180.085968 136.622940,182.276260 
	C150.176117,185.199356 162.829712,178.804749 166.084763,166.788956 
	C168.325226,158.518417 167.044556,155.865097 158.667572,157.533417 
	C147.322159,159.792877 141.578537,153.921753 135.927734,146.216797 
	C133.567749,142.998901 130.826736,140.061707 128.289825,136.971542 
	C127.479095,135.984024 126.239410,135.138123 126.986183,133.079468 
	C138.237991,130.077850 148.148941,124.727509 153.476349,113.051567 
	C150.883591,111.861389 148.979431,112.788254 147.132782,113.336372 
	C139.715485,115.538002 133.575256,119.683784 129.065277,126.003708 
	C127.148636,128.689545 125.587906,129.216507 123.323929,126.379761 
	C118.232384,120.000084 113.030479,113.706978 107.792404,107.446480 
	C105.572777,104.793617 105.821266,102.560532 107.996590,99.939095 
	C110.689323,96.694130 113.583511,93.668457 117.184509,91.563667 
	C130.136703,83.993057 144.750565,82.170235 156.108002,96.252098 
	C159.453079,100.399597 162.790817,104.567673 166.375900,108.504105 
	C175.937683,119.002991 182.084320,130.024918 172.193359,143.393814 
	C175.618301,147.080002 179.686584,146.914536 183.351715,147.360535 
	C193.622574,148.610382 200.622467,142.252960 200.655121,131.994186 
	C200.693817,119.829330 200.766571,107.663612 200.652405,95.499886 
	C200.620560,92.107895 201.754822,90.611816 205.261353,90.740105 
	C209.921127,90.910591 214.593781,90.865234 219.256897,90.750366 
	C221.631317,90.691879 223.464920,91.482536 225.423569,93.874741 
z"/>
</svg>