<svg xmlns="http://www.w3.org/2000/svg" viewBox="0 0 500 500" width="100%" height="100%">
  <g fill="#0b1154">
    <path d="M110,220 C140,220 160,260 220,290 C250,305 270,300 280,270 C285,250 270,220 250,210 C230,200 210,220 220,240 C230,260 250,260 255,240 C260,220 250,180 220,160 C180,135 150,150 140,160 L160,180 C170,170 190,160 210,180 C230,200 240,230 220,240 C200,250 180,220 150,200 C130,185 110,190 90,200 Z" />
    
    <path d="M280,200 L320,150 L360,150 L360,180 L330,180 L320,200 L360,200 L360,230 L320,230 L310,250 L380,250 L360,290 L280,290 L260,250 L270,230 L280,200 Z" />
  </g>
</svg>
